<?xml version="1.0" encoding="UTF-8"?><svg xmlns="http://www.w3.org/2000/svg" viewBox="0 0 1000 127.98"><defs><style>.e{fill:#eee;}</style></defs><g id="a"/><g id="b"><g id="c"><g id="d"><g><rect class="e" y="112.98" width="1000" height="15"/><rect class="e" width="1000" height="15"/><g><path class="e" d="M983.25,49.16v29.67h-42.28v-29.67h42.28m15-15h-72.28v59.67h72.28V34.16h0Z"/><path class="e" d="M892.14,49.16v29.67h-42.28v-29.67h42.28m15-15h-72.28v59.67h72.28V34.16h0Z"/><path class="e" d="M801.02,49.16v29.67h-42.28v-29.67h42.28m15-15h-72.28v59.67h72.28V34.16h0Z"/><path class="e" d="M709.91,49.16v29.67h-42.28v-29.67h42.28m15-15h-72.28v59.67h72.28V34.16h0Z"/><path class="e" d="M618.8,49.16v29.67h-42.28v-29.67h42.28m15-15h-72.28v59.67h72.28V34.16h0Z"/><path class="e" d="M527.69,49.16v29.67h-42.28v-29.67h42.28m15-15h-72.28v59.67h72.28V34.16h0Z"/><path class="e" d="M436.58,49.16v29.67h-42.28v-29.67h42.28m15-15h-72.28v59.67h72.28V34.16h0Z"/><path class="e" d="M345.47,49.16v29.67h-42.28v-29.67h42.28m15-15h-72.28v59.67h72.28V34.16h0Z"/><path class="e" d="M254.35,49.16v29.67h-42.28v-29.67h42.28m15-15h-72.28v59.67h72.28V34.16h0Z"/><path class="e" d="M163.24,49.16v29.67h-42.28v-29.67h42.28m15-15H105.96v59.67h72.28V34.16h0Z"/><path class="e" d="M72.13,49.16v29.67H29.85v-29.67h42.28m15-15H14.85v59.67H87.13V34.16h0Z"/></g></g></g></g></g></svg>