<?xml version="1.0" encoding="utf-8"?>
<!-- Generator: Adobe Illustrator 26.3.1, SVG Export Plug-In . SVG Version: 6.00 Build 0)  -->
<svg version="1.1" id="Layer_1" xmlns="http://www.w3.org/2000/svg" xmlns:xlink="http://www.w3.org/1999/xlink" x="0px" y="0px"
	 viewBox="0 0 1000 128" style="enable-background:new 0 0 1000 128;" xml:space="preserve">
<style type="text/css">
	.st0{fill:#EEEEEE;}
	.st1{fill:#211C56;}
</style>
<g id="a">
</g>
<g id="b">
	<g id="c">
		<g id="d">
			<g>
				<rect y="113" class="st0" width="1000" height="15"/>
				<rect class="st0" width="1000" height="15"/>
				<g>
					<g>
						<polygon class="st1" points="45.2,71.3 52.4,62.1 58.3,71.3 						"/>
						<polygon class="st0" points="52.9,49.2 29.9,78.8 72.1,78.8 52.9,49.2 						"/>
					</g>
					<g>
						<polygon class="st1" points="136.2,71.3 143.3,62.1 149.4,71.3 						"/>
						<polygon class="st0" points="143.8,49.2 121,78.8 163.2,78.8 143.8,49.2 						"/>
					</g>
					<g>
						<polygon class="st1" points="227.2,71.3 234.3,62.1 240.4,71.3 						"/>
						<polygon class="st0" points="234.8,49.2 212.1,78.8 254.4,78.8 234.8,49.2 						"/>
					</g>
					<g>
						<polygon class="st1" points="318.3,71.3 325.3,62.1 331.5,71.3 						"/>
						<polygon class="st0" points="325.7,49.2 303.2,78.8 345.5,78.8 325.7,49.2 						"/>
					</g>
					<g>
						<polygon class="st1" points="409.3,71.3 416.3,62.1 422.5,71.3 						"/>
						<polygon class="st0" points="416.6,49.2 394.3,78.8 436.6,78.8 416.6,49.2 						"/>
					</g>
					<g>
						<polygon class="st1" points="500.4,71.3 507.2,62.1 513.5,71.3 						"/>
						<polygon class="st0" points="507.5,49.2 485.4,78.8 527.7,78.8 507.5,49.2 						"/>
					</g>
					<g>
						<polygon class="st1" points="591.4,71.3 598.2,62.1 604.5,71.3 						"/>
						<polygon class="st0" points="598.4,49.2 576.5,78.8 618.8,78.8 598.4,49.2 						"/>
					</g>
					<g>
						<polygon class="st1" points="682.4,71.3 689.2,62.1 695.6,71.3 						"/>
						<polygon class="st0" points="689.3,49.2 667.6,78.8 709.9,78.8 689.3,49.2 						"/>
					</g>
					<g>
						<polygon class="st1" points="773.5,71.3 780.2,62.1 786.6,71.3 						"/>
						<polygon class="st0" points="780.3,49.2 758.8,78.8 801,78.8 780.3,49.2 						"/>
					</g>
					<g>
						<polygon class="st1" points="864.5,71.3 871.1,62.1 877.7,71.3 						"/>
						<polygon class="st0" points="871.2,49.2 849.9,78.8 892.1,78.8 871.2,49.2 						"/>
					</g>
					<g>
						<polygon class="st1" points="955.5,71.3 962.1,62.1 968.7,71.3 						"/>
						<polygon class="st0" points="962.1,49.2 941,78.8 983.2,78.8 962.1,49.2 						"/>
					</g>
				</g>
			</g>
		</g>
	</g>
</g>
</svg>
