<?xml version="1.0" encoding="UTF-8"?><svg xmlns="http://www.w3.org/2000/svg" viewBox="0 0 561.43 616.66"><defs><style>.b{fill:#f1ac27;}.c{fill:#ed1e79;}.d{fill:#752e1a;}.e{fill:#b24a26;}.f,.g{fill:#231f20;}.h{fill:#211c56;}.i{fill:#5e2e8b;}.g{mix-blend-mode:multiply;opacity:.5;}.j{isolation:isolate;}</style></defs><g class="j"><g id="a"><g><path class="h" d="M390.64,401.85c-5.89,6.51-10.15,16.09-17.74,19.57-9.33,4.26-22.49-1.46-32.47,1.46-6.29,1.85-11.83,7.44-17.73,11.59-3.29,2.31-6.69,4.18-10.38,4.71-10.08,1.43-21.09-7.77-31.56-7.77s-21.48,9.2-31.56,7.77c-10.33-1.47-18.31-13.42-28.11-16.3-9.98-2.92-23.14,2.8-32.47-1.46-9.42-4.32-13.7-18.03-22.34-23.6-8.7-5.6-22.95-3.82-30.73-10.57-7.8-6.76-8.06-21.13-14.82-28.93-6.75-7.78-20.93-10.06-26.53-18.76-5.57-8.64-1.79-22.49-6.1-31.92-4.26-9.32-17.23-15.51-20.15-25.49-2.88-9.8,4.67-22.01,3.2-32.34-1.44-10.08-12.13-19.67-12.13-30.15s10.69-20.07,12.13-30.14c1.47-10.33-6.08-22.54-3.2-32.34,2.92-9.98,15.89-16.17,20.15-25.49l.06-.15c4.21-9.42,.5-23.18,6.04-31.77,5.6-8.7,19.78-10.98,26.53-18.77,6.76-7.79,7.02-22.16,14.82-28.92,7.78-6.75,22.03-4.97,30.73-10.57,8.64-5.57,12.92-19.29,22.34-23.6,9.33-4.26,22.49,1.46,32.47-1.46,2.91-.86,5.67-2.52,8.37-4.46-1.41,1.56-2.92,2.94-4.59,4.01-8.7,5.6-22.95,3.82-30.73,10.57-7.8,6.76-8.06,21.13-14.82,28.93-6.75,7.78-20.93,10.06-26.53,18.76-5.57,8.64-1.79,22.49-6.1,31.92-4.26,9.32-17.23,15.51-20.15,25.49-2.88,9.8,4.67,22.01,3.2,32.34-1.44,10.08-12.13,19.67-12.13,30.15s10.69,20.07,12.13,30.14c.97,6.81-1.99,14.45-3.28,21.66-.67,3.73-.9,7.34,.08,10.68,2.92,9.98,15.89,16.17,20.15,25.49,4.31,9.43,.53,23.28,6.1,31.92,5.6,8.7,19.78,10.98,26.53,18.77,6.76,7.79,7.02,22.16,14.82,28.92,7.25,6.29,20.11,5.17,28.87,9.52,.64,.32,1.26,.67,1.86,1.05,8.64,5.57,12.92,19.29,22.34,23.6,9.33,4.26,22.49-1.46,32.47,1.47,9.8,2.87,17.78,14.82,28.11,16.29,10.08,1.44,21.09-7.77,31.56-7.77s21.48,9.21,31.56,7.77c7.25-1.03,13.35-7.23,19.73-11.82Z"/><path class="c" d="M339.93,16.29c-5.9,4.14-11.44,9.74-17.74,11.58-9.98,2.93-23.14-2.8-32.46,1.47-9.43,4.31-13.71,18.03-22.35,23.59-8.69,5.6-22.95,3.83-30.73,10.57-7.8,6.77-8.05,21.13-14.82,28.93-6.75,7.78-20.93,10.07-26.53,18.76-5.57,8.64-1.78,22.49-6.09,31.92-4.27,9.32-17.24,15.52-20.16,25.49-2.88,9.81,4.67,22.01,3.2,32.34-1.44,10.08-12.13,19.67-12.13,30.15s10.69,20.07,12.13,30.15c1.47,10.33-6.08,22.53-3.2,32.34,2.92,9.97,15.89,16.16,20.15,25.49,4.32,9.42,.53,23.27,6.1,31.92,5.6,8.69,19.78,10.98,26.53,18.76,.42,.48,.81,.98,1.18,1.51-8.76-4.35-21.62-3.23-28.87-9.52-7.8-6.76-8.06-21.13-14.82-28.92-6.75-7.79-20.93-10.07-26.53-18.77-5.57-8.64-1.79-22.49-6.1-31.92-4.26-9.32-17.23-15.51-20.15-25.49-2.88-9.8,4.67-22.01,3.2-32.34-1.44-10.07-12.13-19.67-12.13-30.14s10.69-20.07,12.13-30.15c1.47-10.33-6.08-22.54-3.2-32.34,2.92-9.98,15.89-16.17,20.15-25.49,4.31-9.43,.53-23.28,6.1-31.92,5.6-8.7,19.78-10.98,26.53-18.76,6.76-7.8,7.02-22.17,14.82-28.93,7.78-6.75,22.03-4.97,30.73-10.57,1.67-1.07,3.18-2.45,4.59-4.01,6.38-4.6,12.48-10.81,19.74-11.84,10.08-1.43,21.09,7.77,31.56,7.77S302.24-1.28,312.32,.15c10.15,1.44,18.04,13.01,27.61,16.14Z"/><path class="i" d="M493.57,282.15c-2.92,9.98-15.89,16.17-20.15,25.49-2.44,5.33-2.29,12.08-2.71,18.51-.32,4.93-.98,9.66-3.39,13.41-5.6,8.7-19.78,10.98-26.53,18.77-6.76,7.79-7.02,22.16-14.82,28.92-7.78,6.75-22.03,4.97-30.73,10.57-1.68,1.08-3.19,2.46-4.6,4.03-6.38,4.59-12.48,10.79-19.73,11.82-10.08,1.44-21.09-7.77-31.56-7.77s-21.48,9.21-31.56,7.77c-10.33-1.47-18.31-13.42-28.11-16.29-9.98-2.93-23.14,2.79-32.47-1.47-9.42-4.31-13.7-18.03-22.34-23.6-.6-.38-1.22-.73-1.86-1.05-.37-.53-.76-1.03-1.18-1.51-6.75-7.78-20.93-10.07-26.53-18.76-5.57-8.65-1.78-22.5-6.1-31.92-3.32-7.28-11.95-12.65-16.97-19.39-.01,0-.02-.01-.02-.03-1.4-1.89-2.52-3.89-3.16-6.07-2.88-9.81,4.67-22.01,3.2-32.34-1.44-10.08-12.13-19.68-12.13-30.15s10.69-20.07,12.13-30.15c1.47-10.33-6.08-22.53-3.2-32.34,2.92-9.97,15.89-16.17,20.16-25.49,4.31-9.43,.52-23.28,6.09-31.92,5.6-8.69,19.78-10.98,26.53-18.76,6.77-7.8,7.02-22.16,14.82-28.93,7.78-6.74,22.04-4.97,30.73-10.57,8.64-5.56,12.92-19.28,22.35-23.59,9.32-4.27,22.48,1.46,32.46-1.47,6.3-1.84,11.84-7.44,17.74-11.58,.16,.06,.33,.11,.5,.16,9.98,2.92,23.14-2.8,32.47,1.46,9.42,4.31,13.7,18.03,22.34,23.6,8.7,5.6,22.95,3.82,30.73,10.57,7.8,6.76,8.06,21.13,14.82,28.92,6.75,7.79,20.93,10.07,26.53,18.77,5.57,8.64,1.79,22.49,6.1,31.92,4.26,9.32,17.23,15.51,20.15,25.49,2.88,9.8-4.67,22.01-3.2,32.34,1.44,10.07,12.13,19.67,12.13,30.14s-10.69,20.07-12.13,30.15c-1.47,10.33,6.08,22.54,3.2,32.34Z"/></g><path class="h" d="M390.64,401.85c-5.89,6.51-10.15,16.09-17.74,19.57-9.33,4.26-22.49-1.46-32.47,1.46-6.29,1.85-11.83,7.44-17.73,11.59-.17-.06-.34-.11-.51-.16-9.98-2.93-23.14,2.8-32.46-1.47-9.43-4.31-13.71-18.03-22.35-23.59-8.7-5.6-22.95-3.83-30.73-10.58-7.32-6.35-7.99-19.39-13.64-27.41,.64,.32,1.26,.67,1.86,1.05,8.64,5.57,12.92,19.29,22.34,23.6,9.33,4.26,22.49-1.46,32.47,1.47,9.8,2.87,17.78,14.82,28.11,16.29,10.08,1.44,21.09-7.77,31.56-7.77s21.48,9.21,31.56,7.77c7.25-1.03,13.35-7.23,19.73-11.82Z"/><path class="g" d="M470.71,326.15c-.32,4.93-.98,9.66-3.39,13.41-5.6,8.7-19.78,10.98-26.53,18.77-6.76,7.79-7.02,22.16-14.82,28.92-7.78,6.75-22.03,4.97-30.73,10.57-1.68,1.08-3.19,2.46-4.6,4.03-5.89,6.51-10.15,16.09-17.74,19.57-9.33,4.26-22.49-1.46-32.47,1.46-6.29,1.85-11.83,7.44-17.73,11.59-3.29,2.31-6.69,4.18-10.38,4.71-10.08,1.43-21.09-7.77-31.56-7.77s-21.48,9.2-31.56,7.77c-10.33-1.47-18.31-13.42-28.11-16.3-9.98-2.92-23.14,2.8-32.47-1.46-9.42-4.32-13.7-18.03-22.34-23.6-8.7-5.6-22.95-3.82-30.73-10.57-7.8-6.76-8.06-21.13-14.82-28.93-6.75-7.78-20.93-10.06-26.53-18.76-5.57-8.64-1.79-22.49-6.1-31.92-4.26-9.32-17.23-15.51-20.15-25.49-2.88-9.8,4.67-22.01,3.2-32.34-1.44-10.08-12.13-19.67-12.13-30.15s10.69-20.07,12.13-30.14c1.47-10.33-6.08-22.54-3.2-32.34,2.92-9.98,15.89-16.17,20.15-25.49l.06-.15c3.37,41.87,16.97,80.84,38.3,114.42,12.68,19.98,28.11,38.06,45.75,53.69,0,.02,.01,.03,.02,.03,44.48,39.44,103,63.38,167.12,63.38,48.13,0,93.11-13.49,131.36-36.91Z"/><g><polygon class="e" points="353.84 563.15 207.65 563.15 212.71 528.69 217.52 495.92 235.83 371.23 332.29 371.23 333.67 383.56 346.29 495.92 349.99 528.86 353.84 563.15"/><path class="h" d="M561.43,616.66H0c56.45-45,129.47-76.74,212.71-87.97,10.29-1.4,20.72-2.48,31.27-3.23,12.09-.88,24.34-1.32,36.73-1.32,23.64,0,46.79,1.62,69.28,4.72,82.72,11.39,155.27,43.03,211.44,87.8Z"/><polygon class="h" points="353.84 563.15 207.65 563.15 212.71 528.69 217.52 495.92 346.29 495.92 349.99 528.86 353.84 563.15"/></g><path class="g" d="M334.89,383.77c-33.56,31.29-60.58,69.5-78.78,112.36-4.1,9.62-7.74,19.47-10.91,29.54-3.87,12.27-7.04,24.85-9.47,37.69-3.27,17.33-5.19,35.13-5.63,53.3H0c56.45-45,130.69-76.53,213.93-87.76l4.81-32.77,14.38-111.3,100.39-13.39,1.38,12.33Z"/><path class="e" d="M385.68,306.91c-2.83,18.96-2.28,42.51-14.65,45.89-2.75,.75-6.09,3.05-12.19-2.27-2.06,6.04-6.39,16.06-15.49,25.53-12.53,13.03-43.59,23.55-62.64,23.55-2.79,0-5.75-.22-8.81-.66-11.86-1.64-25.27-6.3-36.07-12.5-5.46-3.13-10.25-6.66-13.84-10.39-9.1-9.47-13.43-19.49-15.49-25.53-6.1,5.32-9.44,3.02-12.19,2.27-12.37-3.38-11.82-26.93-14.66-45.89-1.11-7.45,3.19-9.84,5.3-10.59,3.64-1.29,8.94,1.96,13.4,8.12-2.59-8.28-5.75-21.83-4.58-38.46,.66-9.56,2.8-39.92,26.83-62.31,.68-.64,1.37-1.27,2.09-1.89,4.67-4.06,9.47-7.27,14.26-9.81,15.99-8.48,32-9.52,43.76-9.52,16.2,0,41.67,1.75,61.93,19.33,26.01,22.55,28.24,54.37,28.93,64.2,1.17,16.63-1.99,30.18-4.58,38.46,4.46-6.16,9.76-9.41,13.4-8.12,2.1,.75,6.41,3.14,5.29,10.59Z"/><path class="g" d="M235.83,386.45c-5.46-3.13-10.25-6.66-13.84-10.39-9.1-9.47-13.43-19.49-15.49-25.53-6.1,5.32-9.44,3.02-12.19,2.27-12.37-3.38-11.82-26.93-14.66-45.89-1.11-7.45,3.19-9.84,5.3-10.59,3.64-1.29,8.94,1.96,13.4,8.12-2.59-8.28-5.75-21.83-4.58-38.46,.66-9.56,2.8-39.92,26.83-62.31-11.06,22.39-18.8,54.56-10.22,96.14,9.45,45.83,19.51,73.08,25.45,86.64Z"/><g><path class="d" d="M314.54,339.82c-19.43,13.24-33.83,10.67-33.83,10.67,0,0-14.3,2.57-33.73-10.67,2.41-7.8,16.24-23.48,24.37-23.48,6.85,0,6.46,1.43,9.36,1.43s2.61-1.42,9.46-1.42c8.13,0,21.96,15.67,24.37,23.47Z"/><path class="b" d="M197.34,397.23c-14.36,0-25.99-11.64-25.99-25.99s11.64-25.99,25.99-25.99v51.99Z"/><path class="b" d="M364.09,397.23c14.36,0,25.99-11.64,25.99-25.99s-11.64-25.99-25.99-25.99v51.99Z"/><path class="b" d="M273.21,301.36c0,4.14,3.36,5.56,7.5,5.56,4.14,0,7.5-1.41,7.5-5.56h-15.01Z"/><path class="f" d="M374.3,251.05c-2.32,11.63-11.72,44.65-44.12,49.62-39.45,6.05-39.57-29.41-42.35-32.43-2.78-3.03-4.85-3.77-7.12-3.75s-4.33,.72-7.11,3.75c-2.79,3.02-2.91,38.48-42.35,32.43-32.4-4.97-41.8-37.99-44.13-49.62-.47-2.39,.74-4.79,2.93-5.86,8.62-4.19,30.86-14.19,46.64-14.1,19.97,.12,33.16,21.18,33.16,21.18h21.73s13.19-21.06,33.15-21.18c15.79-.09,38.03,9.91,46.64,14.1,2.2,1.07,3.41,3.47,2.93,5.86Z"/></g><path class="f" d="M265.11,301.36h12.29c-1.5-2.5-5.66-6.57-8.22-6.57s-4.07,3.5-4.07,6.57Z"/><path class="f" d="M296.31,301.36h-12.29c1.5-2.5,5.66-6.57,8.22-6.57s4.07,3.5,4.07,6.57Z"/></g></g></svg>